<svg width="46" height="45" viewBox="0 0 46 45" fill="none" xmlns="http://www.w3.org/2000/svg">
<path d="M36.7913 28.8333H38.8747C40.4332 28.8116 41.9212 28.1799 43.0195 27.0738C44.1178 25.9678 44.7389 24.4754 44.7497 22.9167V6.95833C44.7497 5.37809 44.1219 3.86256 43.0045 2.74516C41.8871 1.62775 40.3716 1 38.7913 1H14.9163C13.3361 1 11.8206 1.62775 10.7032 2.74516C9.58576 3.86256 8.95801 5.37809 8.95801 6.95833V9.04167" fill="#FBE6A2"/>
<path d="M36.7913 28.8333H38.8747C40.4332 28.8116 41.9212 28.1799 43.0195 27.0738C44.1178 25.9678 44.7389 24.4754 44.7497 22.9167V6.95833C44.7497 5.37809 44.1219 3.86256 43.0045 2.74516C41.8871 1.62775 40.3716 1 38.7913 1H14.9163C13.3361 1 11.8206 1.62775 10.7032 2.74516C9.58576 3.86256 8.95801 5.37809 8.95801 6.95833V9.04167" stroke="#020202" stroke-width="2" stroke-miterlimit="10"/>
<path d="M36.7917 14.9167V30.8333C36.7917 32.4136 36.1639 33.9291 35.0465 35.0465C33.9291 36.1639 32.4136 36.7917 30.8333 36.7917H26.8542V42.75L14.9167 36.7917H6.95833C6.17587 36.7917 5.40108 36.6376 4.67818 36.3381C3.95528 36.0387 3.29844 35.5998 2.74516 35.0465C1.62775 33.9291 1 32.4136 1 30.8333V14.9167C1 13.3364 1.62775 11.8209 2.74516 10.7035C3.86256 9.58609 5.37809 8.95834 6.95833 8.95834H30.8333C32.4136 8.95834 33.9291 9.58609 35.0465 10.7035C36.1639 11.8209 36.7917 13.3364 36.7917 14.9167Z" fill="#FBE6A2" stroke="#020202" stroke-width="2" stroke-miterlimit="10"/>
</svg>
