<svg width="25" height="25" viewBox="0 0 25 25" fill="none" xmlns="http://www.w3.org/2000/svg">
<path d="M21.5621 3.43754C20.8273 2.70666 19.833 2.29639 18.7965 2.29639C17.7601 2.29639 16.7658 2.70666 16.0309 3.43754L5.24964 14.2344L2.49964 19.8907C2.35829 20.1886 2.29403 20.5172 2.31274 20.8464C2.33146 21.1755 2.43255 21.4948 2.60674 21.7747C2.78093 22.0547 3.02265 22.2864 3.3097 22.4486C3.59675 22.6108 3.91995 22.6984 4.24964 22.7032C4.54798 22.7031 4.8422 22.6335 5.10901 22.5L10.7653 19.75L20.1403 10.375L21.4371 9.09379L21.5309 9.00004C22.2717 8.26601 22.691 7.26808 22.6968 6.22525C22.7027 5.18242 22.2946 4.17985 21.5621 3.43754ZM20.1715 4.82816C20.3534 5.00959 20.4977 5.22512 20.5962 5.46241C20.6946 5.69969 20.7453 5.95407 20.7453 6.21098C20.7453 6.46788 20.6946 6.72226 20.5962 6.95954C20.4977 7.19683 20.3534 7.41236 20.1715 7.59379L17.4059 4.82816C17.7611 4.46727 18.2434 4.25976 18.7496 4.25004C19.0138 4.24259 19.2766 4.29014 19.5213 4.38967C19.7661 4.48919 19.9875 4.63852 20.1715 4.82816ZM4.26526 20.7344L6.70276 15.625L9.37464 18.2969L4.26526 20.7344ZM10.7653 16.9844L8.01526 14.2344L16.0309 6.25004L18.7496 8.96879L10.7653 16.9844Z" fill="black"/>
</svg>
