<svg width="20" height="20" viewBox="0 0 20 20" fill="none" xmlns="http://www.w3.org/2000/svg">
<g clip-path="url(#clip0_389_2603)">
<path fill-rule="evenodd" clip-rule="evenodd" d="M14.7501 8.24911L14.4281 10.5993H10.5609V18.8249H8.21073V10.5993H4.68546V8.24911H8.21073V6.09518C8.21073 3.10694 10.0462 1.17508 12.8888 1.17508C14.1061 1.17508 14.8653 1.23972 15.3036 1.29847L15.2695 3.52409L13.4622 3.52761C13.4128 3.52292 12.2354 3.43126 11.3858 4.21152C10.8382 4.71328 10.5609 5.43478 10.5609 6.35371V8.24913H14.7501V8.24911ZM12.1743 5.08226C12.6373 4.651 13.3588 4.698 13.4117 4.70035L16.4269 4.69918L16.4916 0.350177L16.038 0.238542C15.7466 0.166875 14.8547 0 12.8888 0C9.38817 0 7.03564 2.45006 7.03564 6.09518V7.07403H3.51038V11.7744H7.03564V20H11.736V11.7744H15.4516L16.0967 7.07403H11.736V6.3537C11.736 5.78144 11.8841 5.3537 12.1743 5.08226Z" fill="black"/>
</g>
<defs>
<clipPath id="clip0_389_2603">
<rect width="20" height="20" fill="white"/>
</clipPath>
</defs>
</svg>
