<svg width="68" height="68" viewBox="0 0 68 68" fill="none" xmlns="http://www.w3.org/2000/svg">
<g opacity="0.75">
<path d="M31.6366 31.4158C21.8521 24.2362 8.01368 25.9071 2.80772 32.5025C-2.39741 39.1026 9.74884 39.5787 19.5351 46.7571C29.3205 53.9309 33.0332 65.0903 38.2408 58.4935C43.4472 51.8951 41.4246 38.5929 31.6366 31.4158Z" fill="black"/>
<path d="M28.6864 23.0675C32.0059 25.1745 38.5941 20.7047 41.6333 15.8873C44.669 11.0725 44.4351 5.46249 41.1123 3.358C37.7891 1.2565 32.6337 3.45559 29.5979 8.27043C26.5605 13.0865 25.3606 20.9626 28.6864 23.0675Z" fill="black"/>
<path d="M41.6714 31.6403C44.2331 34.4004 51.4832 31.8805 55.5245 28.1682C59.5638 24.4601 60.7578 19.2171 58.2009 16.4533C55.6377 13.6945 50.286 14.4613 46.248 18.1711C42.2112 21.8826 39.1072 28.877 41.6714 31.6403Z" fill="black"/>
<path d="M63.7948 34.8427C61.4726 31.8573 56.0736 32.1416 51.7347 35.4768C47.3925 38.8144 43.7137 45.5107 46.0345 48.4945C48.3579 51.4815 55.8017 49.6256 60.1438 46.2879C64.4856 42.9531 66.1181 37.8298 63.7948 34.8427Z" fill="black"/>
<path d="M20.3226 2.46796C16.9121 1.15451 12.3788 4.1422 10.2026 9.14524C8.02589 14.1411 8.00084 21.6113 11.4118 22.9219C14.8239 24.2341 20.3826 18.8898 22.558 13.8924C24.7367 8.89246 23.7324 3.77702 20.3226 2.46796Z" fill="black"/>
</g>
</svg>
