<svg width="36" height="36" viewBox="0 0 36 36" fill="none" xmlns="http://www.w3.org/2000/svg">
<path fill-rule="evenodd" clip-rule="evenodd" d="M6.33349 9.26468C3.2734 6.54461 5.19739 1.48413 9.29165 1.48413H26.3292C30.4233 1.48413 32.3475 6.54461 29.2873 9.26468L22.7611 15.0657C22.4443 15.3474 22.263 15.7511 22.263 16.175V31.2956C22.263 33.9402 19.0656 35.2645 17.1957 33.3946L14.2272 30.4262C13.6705 29.8694 13.3578 29.1144 13.3578 28.3272V16.175C13.3578 15.7511 13.1765 15.3474 12.8596 15.0657L6.33349 9.26468ZM9.29165 4.45254C7.9269 4.45254 7.28556 6.13937 8.3056 7.04606L14.8317 12.8471C15.7824 13.692 16.3262 14.9031 16.3262 16.175V28.3272L19.2946 31.2956V16.175C19.2946 14.9031 19.8384 13.692 20.7891 12.8471L27.3153 7.04606C28.3352 6.13937 27.6939 4.45254 26.3292 4.45254H9.29165Z" fill="#0F0F0F"/>
</svg>
