<svg width="75" height="75" viewBox="0 0 100 100" fill="none" xmlns="http://www.w3.org/2000/svg">
<g clip-path="url(#clip0_110_2000)">
<path d="M98.1094 45.5813L54.3594 1.83125C53.1391 0.610938 51.5391 0 49.9406 0C48.3422 0 46.7422 0.610938 45.5219 1.83125L1.77188 45.5813C-0.668748 48.0281 -0.546873 51.8563 1.89375 54.2969C4.34063 56.75 7.91719 57.1109 10.3656 54.6625L12.5 52.5266V93.75C12.5 97.2047 15.2953 100 18.75 100H43.75V75H56.25V100H81.25C84.7047 100 87.5 97.2047 87.5 93.75V52.6484L89.3672 54.5156C91.8078 56.9562 95.5375 56.7375 97.9859 54.2953C100.428 51.8563 100.556 48.0219 98.1094 45.5813Z" fill="#C6CCF8"/>
</g>
<defs>
<clipPath id="clip0_110_2000">
<rect width="100" height="100" fill="white"/>
</clipPath>
</defs>
</svg>
