<svg width="100" height="100" viewBox="0 0 100 100" fill="none" xmlns="http://www.w3.org/2000/svg">
<path d="M28.3391 34.1C19.5188 36.5203 14.1391 45.2437 15.6953 51.2C17.2547 57.1578 23.1422 50.3719 31.9625 47.95C40.7797 45.5266 49.1875 48.3891 47.6313 42.4312C46.0735 36.4734 37.1594 31.6766 28.3391 34.1Z" fill="#C6CCF8"/>
<path d="M21.5125 31.3234C24.1703 30.3359 24.5094 24.4219 23.0938 20.4344C21.6781 16.45 18.375 14.0234 15.7172 15.0141C13.061 16.0063 12.0547 20.0406 13.4703 24.025C14.886 28.0109 18.8531 32.3156 21.5125 31.3234Z" fill="#C6CCF8"/>
<path d="M32.3563 28.2469C35.1735 27.9938 36.9922 22.3735 36.6313 18.1453C36.2719 13.9203 33.6953 10.7031 30.8781 10.9516C28.0609 11.2063 26.0672 14.836 26.4281 19.061C26.7906 23.286 29.536 28.5 32.3563 28.2469Z" fill="#C6CCF8"/>
<path d="M44.8094 15.8813C41.9828 15.8813 39.6922 19.3188 39.6922 23.5594C39.6922 27.8032 41.9844 33.2391 44.8094 33.2391C47.6375 33.2391 49.9281 27.8032 49.9281 23.5594C49.9297 19.3172 47.6375 15.8813 44.8094 15.8813Z" fill="#C6CCF8"/>
<path d="M5.18438 26.7609C2.73438 28.2078 2.42501 32.3609 4.49845 36.0359C6.5672 39.7078 11.2063 43.2422 13.6547 41.7938C16.1047 40.3453 15.4375 34.4609 13.3672 30.7891C11.2969 27.1141 7.63126 25.3125 5.18438 26.7609Z" fill="#C6CCF8"/>
<path d="M71.6641 69.5766C62.8438 67.1531 53.9266 71.9516 52.3703 77.9078C50.8109 83.8656 59.2219 81.0031 68.0406 83.4266C76.861 85.8484 82.7469 92.6344 84.3031 86.6766C85.8625 80.7203 80.4813 71.9984 71.6641 69.5766Z" fill="#C6CCF8"/>
<path d="M78.4906 66.8047C81.1453 67.7922 85.1156 63.4875 86.5313 59.5016C87.9469 55.5157 86.9406 51.4813 84.2844 50.4907C81.6266 49.4985 78.3266 51.9266 76.9109 55.9125C75.4953 59.8985 75.8328 65.8125 78.4906 66.8047Z" fill="#C6CCF8"/>
<path d="M67.6484 63.7219C70.4656 63.975 73.2125 58.7625 73.5719 54.5375C73.9313 50.3125 71.9422 46.6812 69.125 46.4281C66.3078 46.1781 63.7328 49.3969 63.3688 53.6234C63.0094 57.85 64.8313 63.4687 67.6484 63.7219Z" fill="#C6CCF8"/>
<path d="M55.1906 68.7157C58.0203 68.7157 60.3109 63.2797 60.3109 59.036C60.3109 54.7954 58.0188 51.3578 55.1906 51.3578C52.3625 51.3578 50.0703 54.7953 50.0703 59.0391C50.0703 63.2797 52.3656 68.7157 55.1906 68.7157Z" fill="#C6CCF8"/>
<path d="M94.8172 62.2375C92.3672 60.7891 88.7047 62.5907 86.636 66.2641C84.5688 69.9375 83.9 75.8219 86.3454 77.2703C88.7954 78.7188 93.4344 75.1844 95.5032 71.5125C97.5719 67.8391 97.2641 63.686 94.8172 62.2375Z" fill="#C6CCF8"/>
</svg>
