<svg width="35" height="35" viewBox="0 0 35 35" fill="none" xmlns="http://www.w3.org/2000/svg">
<path d="M12.5271 19.7019L22.4875 25.5061M22.4729 9.49359L12.5271 15.2978M30.625 7.2915C30.625 9.70775 28.6662 11.6665 26.25 11.6665C23.8338 11.6665 21.875 9.70775 21.875 7.2915C21.875 4.87526 23.8338 2.9165 26.25 2.9165C28.6662 2.9165 30.625 4.87526 30.625 7.2915ZM13.125 17.4998C13.125 19.9161 11.1662 21.8748 8.75 21.8748C6.33375 21.8748 4.375 19.9161 4.375 17.4998C4.375 15.0836 6.33375 13.1248 8.75 13.1248C11.1662 13.1248 13.125 15.0836 13.125 17.4998ZM30.625 27.7082C30.625 30.1244 28.6662 32.0832 26.25 32.0832C23.8338 32.0832 21.875 30.1244 21.875 27.7082C21.875 25.2919 23.8338 23.3332 26.25 23.3332C28.6662 23.3332 30.625 25.2919 30.625 27.7082Z" stroke="#1E1E1E" stroke-width="3" stroke-linecap="round" stroke-linejoin="round"/>
</svg>
