<svg width="40" height="40" viewBox="0 0 40 40" fill="none" xmlns="http://www.w3.org/2000/svg">
<path d="M23.8847 26.567L26.1014 24.3502C26.4426 24.005 26.8487 23.7307 27.2964 23.5437C27.7442 23.3567 28.2246 23.2605 28.7097 23.2605C29.1951 23.2605 29.6754 23.3567 30.1232 23.5437C30.5709 23.7307 30.9771 24.005 31.3181 24.3502L33.9181 26.9503C34.2632 27.2913 34.5374 27.6972 34.7244 28.145C34.9114 28.5927 35.0077 29.0733 35.0077 29.5585C35.0077 30.0438 34.9114 30.5243 34.7244 30.9722C34.5374 31.4198 34.2632 31.8257 33.9181 32.1667L32.7347 33.3667C31.9194 34.19 30.8649 34.735 29.7216 34.9235C28.5782 35.112 27.4046 34.9348 26.3681 34.4168C17.4486 29.8253 10.1835 22.566 5.58479 13.6503C5.06634 12.6127 4.89031 11.4374 5.08198 10.2934C5.27364 9.14937 5.82314 8.0955 6.65149 7.28352L7.83476 6.08357C8.52798 5.39454 9.46569 5.00772 10.4431 5.00772C11.4205 5.00772 12.3582 5.39454 13.0514 6.08357L15.6681 8.70034C16.3571 9.39357 16.7439 10.3312 16.7439 11.3086C16.7439 12.286 16.3571 13.2236 15.6681 13.9168L13.4514 16.1336C14.9171 18.1162 16.527 19.9877 18.2681 21.7333C19.9991 23.4673 21.8601 25.0667 23.8347 26.517L23.8847 26.567Z" stroke="#C6CCF8" stroke-width="3" stroke-linecap="round" stroke-linejoin="round"/>
</svg>
