<svg width="24" height="24" viewBox="0 0 24 24" fill="none" xmlns="http://www.w3.org/2000/svg">
<path d="M13.2843 11.6945C11.7142 12.8469 10.7641 14.4913 10.4159 16.1085C10.086 17.6408 10.3107 19.0624 10.9503 20.0082L11.084 20.1909C11.4553 20.6615 11.6272 20.6147 11.6715 20.6064C11.8492 20.5728 12.1472 20.3897 12.6477 19.8785C13.538 18.9694 14.8618 17.2127 16.6522 15.8986C18.4425 14.584 20.5476 13.8225 21.6961 13.2351C21.9979 13.0807 22.2311 12.9423 22.4026 12.8124C22.5762 12.6809 22.6495 12.5854 22.6781 12.5301C22.6843 12.52 22.7893 12.3914 22.4185 11.9208C21.6744 10.9774 20.228 10.3085 18.4845 10.1988C16.8678 10.0972 15.0924 10.4864 13.5825 11.4863L13.2843 11.6945Z" stroke="black" stroke-width="1.5"/>
<path d="M9.91484 1.82736C9.59491 2.03031 9.35355 2.44665 9.32596 3.0829C9.29858 3.71466 9.49447 4.48671 9.958 5.22305C10.4284 5.96979 11.1897 6.70414 11.9508 7.15724C12.3303 7.38308 12.6765 7.51961 12.9575 7.5683C13.237 7.61665 13.3938 7.57065 13.4796 7.5161L13.4802 7.51532C13.5679 7.45968 13.6784 7.33418 13.756 7.05611C13.8338 6.77746 13.8604 6.40317 13.82 5.96138C13.7389 5.07486 13.4042 4.06887 12.9341 3.32221L12.9334 3.32161C12.4697 2.58527 11.8602 2.07839 11.2839 1.83335C10.705 1.58733 10.2327 1.62626 9.91484 1.82736Z" stroke="black" stroke-width="1.5"/>
<path d="M4.02733 6.33537C3.7906 6.59118 3.67022 7.02112 3.80307 7.60741C3.93504 8.18966 4.30719 8.84934 4.92102 9.41273L4.9218 9.41333C5.54495 9.98545 6.43518 10.4759 7.25465 10.7073C7.66309 10.8226 8.01725 10.863 8.28783 10.8395C8.55694 10.8161 8.68451 10.7371 8.74427 10.6729C8.80437 10.6082 8.87431 10.4743 8.87642 10.2043C8.87849 9.93347 8.81015 9.58508 8.66203 9.18891C8.36481 8.39393 7.80167 7.54997 7.17928 6.97786C6.56546 6.41413 5.87432 6.09769 5.28042 6.01344C4.68442 5.9289 4.2644 6.08045 4.02716 6.334L4.02733 6.33537Z" stroke="black" stroke-width="1.5"/>
<path d="M2.08286 12.7791C1.86543 13.0584 1.78264 13.4994 1.96373 14.0703C2.14391 14.638 2.57023 15.2615 3.22917 15.7672L3.22994 15.7678C3.89865 16.2813 4.82767 16.6893 5.66434 16.8455C6.08091 16.9233 6.43676 16.9318 6.70507 16.8838C6.97254 16.8359 7.09597 16.7442 7.15223 16.6719C7.20804 16.6 7.26565 16.4591 7.24499 16.1903C7.22421 15.9203 7.12714 15.5799 6.94636 15.1988C6.58344 14.4339 5.9514 13.6444 5.28285 13.1309C4.62425 12.6252 3.90948 12.3723 3.31071 12.3417C2.70866 12.3111 2.29997 12.5005 2.08286 12.7791Z" stroke="black" stroke-width="1.5"/>
<path d="M17.1195 1.56832C16.8296 1.68007 16.5605 1.98128 16.4494 2.54353C16.3388 3.10331 16.4111 3.84255 16.7434 4.60758C17.0794 5.3817 17.691 6.20223 18.3442 6.76398C18.6698 7.04393 18.9773 7.23465 19.2356 7.33272C19.4958 7.43151 19.6402 7.41298 19.7083 7.38673L19.7091 7.38733C19.7712 7.36337 19.8756 7.29095 19.9801 7.06473C20.0855 6.83632 20.1611 6.50767 20.1847 6.09771C20.2319 5.27599 20.0609 4.2923 19.7249 3.51854L19.7241 3.51794C19.3926 2.75354 18.8909 2.16987 18.3807 1.83374C17.9273 1.53518 17.5321 1.46685 17.2392 1.5322L17.1195 1.56832Z" stroke="black" stroke-width="1.5"/>
</svg>
