<svg width="52" height="52" viewBox="0 0 52 52" fill="none" xmlns="http://www.w3.org/2000/svg">
<path d="M47.4286 35.375C45.7929 35.375 43.8571 33.6813 43.8571 32.25V16.625C43.8571 8.01016 35.8455 1 26 1C16.1545 1 8.14286 8.01016 8.14286 16.625V32.25C8.14286 33.6508 6.17232 35.375 4.57143 35.375C2.59732 35.375 1 36.7727 1 38.5C1 40.2273 2.59732 41.625 4.57143 41.625H47.4286C49.4027 41.625 51 40.2273 51 38.5C51 36.7727 49.4027 35.375 47.4286 35.375Z" fill="#FBE6A2" stroke="black" stroke-width="2"/>
<path d="M26.0003 51C29.9449 51 33.1431 48.2016 33.1431 44.75H18.8574C18.8574 48.2016 22.0556 51 26.0003 51Z" fill="#FBE6A2" stroke="black" stroke-width="2"/>
</svg>
