<svg width="24" height="24" viewBox="0 0 24 24" fill="none" xmlns="http://www.w3.org/2000/svg">
<path fill-rule="evenodd" clip-rule="evenodd" d="M9.02523 10.28H5.7355C5.25279 10.276 4.78826 10.464 4.44411 10.8024C4.09996 11.1409 3.90437 11.6022 3.90039 12.0848V18.9155C3.90932 19.9202 4.73076 20.7276 5.7355 20.7191H9.02523C9.5079 20.7232 9.97248 20.5353 10.3166 20.1968C10.6608 19.8584 10.8564 19.3971 10.8603 18.9143V12.0848C10.8564 11.6022 10.6608 11.1409 10.3166 10.8024C9.97248 10.464 9.5079 10.276 9.02523 10.28Z" stroke="black" stroke-width="1.5" stroke-linecap="round" stroke-linejoin="round"/>
<path fill-rule="evenodd" clip-rule="evenodd" d="M9.02523 3.3207H5.7355C4.75097 3.2934 3.93007 4.06805 3.90039 5.05244V6.22858C3.93007 7.21298 4.75097 7.98763 5.7355 7.96032H9.02523C10.0097 7.98763 10.8306 7.21298 10.8603 6.22858V5.05244C10.8306 4.06805 10.0097 3.2934 9.02523 3.3207Z" stroke="black" stroke-width="1.5" stroke-linecap="round" stroke-linejoin="round"/>
<path fill-rule="evenodd" clip-rule="evenodd" d="M15.0138 13.76H18.3024C18.7853 13.7643 19.2501 13.5765 19.5945 13.238C19.9389 12.8995 20.1347 12.4381 20.1387 11.9552V5.12562C20.1347 4.64296 19.9391 4.18165 19.595 3.84317C19.2508 3.5047 18.7862 3.3168 18.3036 3.32081H15.0138C14.5311 3.3168 14.0666 3.5047 13.7224 3.84317C13.3782 4.18165 13.1827 4.64296 13.1787 5.12562V11.9552C13.1827 12.4378 13.3782 12.8991 13.7224 13.2376C14.0666 13.576 14.5311 13.7639 15.0138 13.76Z" stroke="black" stroke-width="1.5" stroke-linecap="round" stroke-linejoin="round"/>
<path fill-rule="evenodd" clip-rule="evenodd" d="M15.0138 20.7192H18.3024C19.2873 20.7472 20.109 19.9724 20.1387 18.9875V17.8114C20.109 16.827 19.288 16.0524 18.3036 16.0796H15.0138C14.0293 16.0524 13.2084 16.827 13.1787 17.8114V18.9864C13.2077 19.9712 14.0289 20.7465 15.0138 20.7192Z" stroke="black" stroke-width="1.5" stroke-linecap="round" stroke-linejoin="round"/>
</svg>
