<svg width="52" height="41" viewBox="0 0 52 41" fill="none" xmlns="http://www.w3.org/2000/svg">
<path d="M1 9.88892C1 6.7775 1 5.22181 1.60553 4.03342C2.13814 2.98806 2.98803 2.13817 4.03339 1.60556C5.22178 1.00003 6.7775 1.00003 9.88889 1.00003H19.5403C20.8992 1.00003 21.5786 1.00003 22.2181 1.15353C22.7847 1.28961 23.3267 1.51409 23.8239 1.8187C24.3844 2.16225 24.865 2.64267 25.8258 3.60353L26.1742 3.95209C27.135 4.91295 27.6156 5.39336 28.1761 5.73692C28.6733 6.04153 29.2153 6.266 29.7819 6.40209C30.4214 6.55559 31.1008 6.55559 32.4597 6.55559H42.1111C45.2225 6.55559 46.7783 6.55559 47.9667 7.16111C49.0119 7.69373 49.8619 8.54361 50.3944 9.58898C51 10.7774 51 12.3331 51 15.4445V31C51 34.1114 51 35.6673 50.3944 36.8556C49.8619 37.9009 49.0119 38.7509 47.9667 39.2834C46.7783 39.8889 45.2225 39.8889 42.1111 39.8889H9.88889C6.77747 39.8889 5.22178 39.8889 4.03339 39.2834C2.98803 38.7509 2.13814 37.9009 1.60553 36.8556C1 35.6673 1 34.1114 1 31V9.88892Z" fill="#FBE6A2" stroke="black" stroke-width="2" stroke-linecap="round" stroke-linejoin="round"/>
</svg>
