<svg width="24" height="24" viewBox="0 0 24 24" fill="none" xmlns="http://www.w3.org/2000/svg">
<path d="M15.7998 21C15.7998 21.3866 16.1132 21.7 16.4998 21.7C16.8864 21.7 17.1998 21.3866 17.1998 21H15.7998ZM4.7998 21C4.7998 21.3866 5.1132 21.7 5.4998 21.7C5.8864 21.7 6.1998 21.3866 6.1998 21H4.7998ZM6.1998 18C6.1998 17.6134 5.8864 17.3 5.4998 17.3C5.1132 17.3 4.7998 17.6134 4.7998 18H6.1998ZM12.2998 21C12.2998 21.3866 12.6132 21.7 12.9998 21.7C13.3864 21.7 13.6998 21.3866 13.6998 21H12.2998ZM13.6998 18C13.6998 17.6134 13.3864 17.3 12.9998 17.3C12.6132 17.3 12.2998 17.6134 12.2998 18H13.6998ZM3.1998 21V19.5H1.7998V21H3.1998ZM7.9998 14.7H10.9998V13.3H7.9998V14.7ZM15.7998 19.5V21H17.1998V19.5H15.7998ZM10.9998 14.7C13.6508 14.7 15.7998 16.849 15.7998 19.5H17.1998C17.1998 16.0758 14.424 13.3 10.9998 13.3V14.7ZM3.1998 19.5C3.1998 16.849 5.34883 14.7 7.9998 14.7V13.3C4.57563 13.3 1.7998 16.0758 1.7998 19.5H3.1998ZM10.9998 14.7H15.4998V13.3H10.9998V14.7ZM20.2998 19.5V21H21.6998V19.5H20.2998ZM15.4998 14.7C18.1508 14.7 20.2998 16.849 20.2998 19.5H21.6998C21.6998 16.0758 18.924 13.3 15.4998 13.3V14.7ZM6.1998 21V18H4.7998V21H6.1998ZM13.6998 21V18H12.2998V21H13.6998ZM9.4998 11.3C7.67726 11.3 6.1998 9.82254 6.1998 8H4.7998C4.7998 10.5958 6.90406 12.7 9.4998 12.7V11.3ZM6.1998 8C6.1998 6.17745 7.67726 4.69999 9.4998 4.69999V3.29999C6.90406 3.29999 4.7998 5.40426 4.7998 8H6.1998ZM9.4998 4.69999C11.3223 4.69999 12.7998 6.17745 12.7998 8H14.1998C14.1998 5.40426 12.0955 3.29999 9.4998 3.29999V4.69999ZM12.7998 8C12.7998 9.13615 12.2262 10.1386 11.3497 10.7333L12.1356 11.8918C13.3799 11.0477 14.1998 9.61972 14.1998 8H12.7998ZM11.3497 10.7333C10.8223 11.091 10.1865 11.3 9.4998 11.3V12.7C10.4755 12.7 11.3837 12.4019 12.1356 11.8918L11.3497 10.7333ZM13.9998 4.69999C15.8223 4.69999 17.2998 6.17745 17.2998 8H18.6998C18.6998 5.40426 16.5955 3.29999 13.9998 3.29999V4.69999ZM17.2998 8C17.2998 9.13615 16.7262 10.1386 15.8497 10.7333L16.6356 11.8918C17.8799 11.0477 18.6998 9.61972 18.6998 8H17.2998ZM15.8497 10.7333C15.3223 11.091 14.6865 11.3 13.9998 11.3V12.7C14.9755 12.7 15.8837 12.4019 16.6356 11.8918L15.8497 10.7333ZM11.9376 5.42348C12.5027 4.97048 13.2187 4.69999 13.9998 4.69999V3.29999C12.889 3.29999 11.8665 3.68621 11.062 4.33113L11.9376 5.42348ZM13.9998 11.3C13.3131 11.3 12.6773 11.091 12.1499 10.7333L11.364 11.8918C12.1159 12.4019 13.0241 12.7 13.9998 12.7V11.3Z" fill="black"/>
</svg>
