<svg width="24" height="24" viewBox="0 0 24 24" fill="none" xmlns="http://www.w3.org/2000/svg">
<g clip-path="url(#clip0_305_2908)">
<path d="M18.68 8.16002V15.8C18.68 16.5585 18.3787 17.286 17.8423 17.8223C17.306 18.3587 16.5785 18.66 15.82 18.66H13.91V21.52L8.18 18.66H4.36C3.98442 18.66 3.61252 18.586 3.26553 18.4423C2.91853 18.2986 2.60325 18.0879 2.33767 17.8223C1.80132 17.286 1.5 16.5585 1.5 15.8V8.16002C1.5 7.4015 1.80132 6.67405 2.33767 6.13769C2.87403 5.60134 3.60148 5.30002 4.36 5.30002H15.82C16.5785 5.30002 17.306 5.60134 17.8423 6.13769C18.3787 6.67405 18.68 7.4015 18.68 8.16002Z" stroke="#020202" stroke-width="1.5" stroke-miterlimit="10"/>
<path d="M18.6803 14.84H19.6803C20.4284 14.8296 21.1427 14.5264 21.6698 13.9955C22.197 13.4645 22.4952 12.7482 22.5003 12V4.34001C22.5003 3.58149 22.199 2.85404 21.6626 2.31769C21.1263 1.78133 20.3988 1.48001 19.6403 1.48001H8.18031C7.42179 1.48001 6.69434 1.78133 6.15799 2.31769C5.62163 2.85404 5.32031 3.58149 5.32031 4.34001V5.34001" stroke="#020202" stroke-width="1.5" stroke-miterlimit="10"/>
</g>
<defs>
<clipPath id="clip0_305_2908">
<rect width="24" height="24" fill="white"/>
</clipPath>
</defs>
</svg>
