<svg width="30" height="30" viewBox="0 0 30 30" fill="none" xmlns="http://www.w3.org/2000/svg">
<path d="M16.0487 13.8697C20.3721 10.6926 26.4742 11.4148 28.7635 14.3184C31.0525 17.2239 25.6945 17.4468 21.3703 20.6233C17.0466 23.7979 15.3972 28.7238 13.1072 25.8198C10.8177 22.915 11.7239 17.0456 16.0487 13.8697Z" fill="#C6CCF8"/>
<path d="M17.359 10.1842C15.8926 11.117 12.9914 9.15253 11.656 7.03096C10.322 4.91052 10.4311 2.43589 11.899 1.50414C13.367 0.573712 15.6387 1.53818 16.9726 3.65862C18.3073 5.77963 18.8282 9.25221 17.359 10.1842Z" fill="#C6CCF8"/>
<path d="M11.6222 13.9795C10.4894 15.1996 7.29409 14.0959 5.51548 12.4628C3.73772 10.8316 3.21661 8.52032 4.34731 7.2986C5.48083 6.07905 7.84054 6.41157 9.61774 8.04356C11.3944 9.67627 12.7561 12.758 11.6222 13.9795Z" fill="#C6CCF8"/>
<path d="M1.86047 15.4152C2.88787 14.0959 5.26898 14.2156 7.1793 15.682C9.09103 17.1495 10.7066 20.0992 9.67982 21.4177C8.65186 22.7376 5.37048 21.9269 3.45876 20.4594C1.54717 18.9931 0.832508 16.7351 1.86047 15.4152Z" fill="#C6CCF8"/>
<path d="M21.0694 1.0897C22.5751 0.506757 24.5715 1.81971 25.5262 4.02408C26.481 6.22527 26.4842 9.5201 24.9783 10.1018C23.4718 10.6842 21.0257 8.33288 20.0714 6.131C19.1157 3.92802 19.5641 1.6707 21.0694 1.0897Z" fill="#C6CCF8"/>
</svg>
